<?xml version="1.0" encoding="utf-8"?>
<!-- Generator: Adobe Illustrator 24.1.2, SVG Export Plug-In . SVG Version: 6.00 Build 0)  -->
<svg version="1.1" id="Layer_1" xmlns="http://www.w3.org/2000/svg" xmlns:xlink="http://www.w3.org/1999/xlink" x="0px" y="0px"
	 viewBox="0 0 398.3 415.1" style="enable-background:new 0 0 398.3 415.1;" xml:space="preserve">
<style type="text/css">
	.st0{fill:#3F3D56;}
	.st1{fill:#CCCCCC;}
	.st2{fill:#0061F2;}
	.st3{fill:#2F2E41;}
	.st4{fill:#FFB8B8;}
	.st5{fill:#F2F2F2;}
</style>
<path class="st0" d="M170.3,323.8c-2.9-7-0.3-15.1,6.2-19.1c1-0.6,0.1-2.3-1-1.6c-7.5,4.4-10.4,13.8-6.9,21.7
	C169.1,325.9,170.8,324.9,170.3,323.8L170.3,323.8z"/>
<path class="st0" d="M170.9,326.4c-2.6-4.5-2-10-1-14.9c1-5.1,2.2-10.3,1.1-15.6c-0.5-2.5-1.7-4.9-3.4-6.8c-0.8-0.9-2.2,0.4-1.3,1.3
	c3.2,3.5,3.6,8.6,3.1,13.1c-0.6,5.3-2.4,10.5-2.2,15.9c0.1,2.7,0.8,5.4,2.1,7.9c0.3,0.4,0.9,0.6,1.3,0.3
	C171,327.4,171.1,326.8,170.9,326.4L170.9,326.4z"/>
<path class="st1" d="M184.6,340.9h-32.4c-1.6,0-2.9-1.3-2.9-2.9v-9.5c0-5.1,4.1-9.2,9.2-9.2h4.7c0.5,0,1-0.4,1-1v-4.4
	c0-0.9,0.7-1.6,1.6-1.6h5.1c0.9,0,1.6,0.7,1.6,1.6v4.4c0,0.5,0.4,1,1,1h4.7c5.1,0,9.2,4.1,9.2,9.2v9.5
	C187.5,339.6,186.2,340.9,184.6,340.9z"/>
<path class="st2" d="M169,283.8c0.7,3.6-0.2,6.8-1.9,7.1c-1.7,0.3-3.7-2.3-4.4-6s1.4-9.6,1.4-9.6S168.3,280.2,169,283.8z"/>
<path class="st2" d="M182,300.6c-2.2,3-5.1,4.6-6.5,3.5c-1.4-1-0.8-4.3,1.3-7.3s8-5.6,8-5.6S184.2,297.7,182,300.6z"/>
<path class="st0" d="M110.7,95.4c-2.9-7-0.3-15.1,6.2-19.1c1-0.6,0.1-2.3-1-1.6c-7.5,4.4-10.4,13.8-6.9,21.7
	C109.5,97.5,111.1,96.5,110.7,95.4L110.7,95.4z"/>
<path class="st0" d="M111.2,98c-2.6-4.5-2-10-1-14.9c1-5.1,2.2-10.3,1.1-15.6c-0.5-2.5-1.7-4.9-3.4-6.8c-0.8-0.9-2.2,0.4-1.3,1.3
	c3.2,3.5,3.6,8.6,3.1,13.1c-0.6,5.3-2.4,10.5-2.2,15.9c0.1,2.7,0.8,5.4,2.1,7.9c0.3,0.4,0.9,0.6,1.3,0.3
	C111.3,99,111.5,98.4,111.2,98L111.2,98z"/>
<path class="st1" d="M125,112.5H92.6c-1.6,0-2.9-1.3-2.9-2.9v-9.5c0-5.1,4.1-9.2,9.2-9.2h4.7c0.5,0,1-0.4,1-1v-4.4
	c0-0.9,0.7-1.6,1.6-1.6h5.1c0.9,0,1.6,0.7,1.6,1.6V90c0,0.5,0.4,1,1,1h4.7c5.1,0,9.2,4.1,9.2,9.2v9.5
	C127.8,111.2,126.6,112.5,125,112.5z"/>
<path class="st2" d="M109.3,55.4c0.7,3.6-0.2,6.8-1.9,7.1c-1.7,0.3-3.7-2.3-4.4-6c-0.7-3.6,1.4-9.6,1.4-9.6S108.6,51.8,109.3,55.4z"
	/>
<path class="st2" d="M122.4,72.2c-2.2,3-5.1,4.6-6.5,3.5s-0.8-4.3,1.3-7.3c2.2-3,8-5.6,8-5.6S124.5,69.3,122.4,72.2z"/>
<rect x="20.3" y="210.5" class="st2" width="26" height="9.5"/>
<rect x="20.3" y="241.6" class="st2" width="26" height="9.5"/>
<path class="st0" d="M204.9,414.2H10.8c-6,0-10.8-4.8-10.8-10.8V48.7c0-6,4.8-10.8,10.8-10.8h194.2c6,0,10.8,4.8,10.8,10.8v354.7
	C215.7,409.4,210.9,414.2,204.9,414.2z M10.8,39.2c-5.3,0-9.5,4.3-9.5,9.5v354.7c0,5.3,4.3,9.5,9.5,9.5h194.2c5.3,0,9.5-4.3,9.5-9.5
	V48.7c0-5.3-4.3-9.5-9.5-9.5H10.8z"/>
<rect x="0.6" y="111.2" class="st0" width="214.5" height="1.3"/>
<rect x="0.6" y="187.3" class="st0" width="214.5" height="1.3"/>
<rect x="0.6" y="263.5" class="st0" width="214.5" height="1.3"/>
<rect x="0.6" y="339.7" class="st0" width="214.5" height="1.3"/>
<path class="st0" d="M44.4,265.1H22.8c-1.8,0-3.2-1.4-3.2-3.2v-61.5c0-1.8,1.4-3.2,3.2-3.2h21.6c1.8,0,3.2,1.4,3.2,3.2v61.5
	C47.6,263.7,46.2,265.1,44.4,265.1z M22.8,198.5c-1.1,0-1.9,0.9-1.9,1.9v61.5c0,1.1,0.9,1.9,1.9,1.9h21.6c1.1,0,1.9-0.9,1.9-1.9
	v-61.5c0-1.1-0.9-1.9-1.9-1.9H22.8z"/>
<rect x="60.3" y="210.5" class="st2" width="26" height="9.5"/>
<rect x="60.3" y="241.6" class="st2" width="26" height="9.5"/>
<path class="st0" d="M84.4,265.1H62.8c-1.8,0-3.2-1.4-3.2-3.2v-61.5c0-1.8,1.4-3.2,3.2-3.2h21.6c1.8,0,3.2,1.4,3.2,3.2v61.5
	C87.6,263.7,86.1,265.1,84.4,265.1z M62.8,198.5c-1.1,0-1.9,0.9-1.9,1.9v61.5c0,1.1,0.9,1.9,1.9,1.9h21.6c1.1,0,1.9-0.9,1.9-1.9
	v-61.5c0-1.1-0.9-1.9-1.9-1.9H62.8z"/>
<rect x="123.7" y="133.7" class="st2" width="26" height="9.5"/>
<rect x="123.7" y="164.8" class="st2" width="26" height="9.5"/>
<path class="st0" d="M147.8,188.3h-21.6c-1.8,0-3.2-1.4-3.2-3.2v-61.5c0-1.8,1.4-3.2,3.2-3.2h21.6c1.8,0,3.2,1.4,3.2,3.2v61.5
	C151,186.9,149.6,188.3,147.8,188.3z M126.3,121.7c-1.1,0-1.9,0.9-1.9,1.9v61.5c0,1.1,0.9,1.9,1.9,1.9h21.6c1.1,0,1.9-0.9,1.9-1.9
	v-61.5c0-1.1-0.9-1.9-1.9-1.9H126.3z"/>
<rect x="163.7" y="133.7" class="st2" width="26" height="9.5"/>
<rect x="163.7" y="164.8" class="st2" width="26" height="9.5"/>
<path class="st0" d="M187.8,188.3h-21.6c-1.8,0-3.2-1.4-3.2-3.2v-61.5c0-1.8,1.4-3.2,3.2-3.2h21.6c1.8,0,3.2,1.4,3.2,3.2v61.5
	C191,186.9,189.6,188.3,187.8,188.3z M166.2,121.7c-1.1,0-1.9,0.9-1.9,1.9v61.5c0,1.1,0.9,1.9,1.9,1.9h21.6c1.1,0,1.9-0.9,1.9-1.9
	v-61.5c0-1.1-0.9-1.9-1.9-1.9H166.2z"/>
<rect x="94.7" y="209.1" transform="matrix(0.9361 -0.3518 0.3518 0.9361 -68.3448 51.5503)" class="st2" width="26" height="9.5"/>
<rect x="105.6" y="238.2" transform="matrix(0.9361 -0.3518 0.3518 0.9361 -77.883 57.257)" class="st2" width="26" height="9.5"/>
<path class="st0" d="M114.3,264.4c-1.3,0-2.5-0.8-3-2.1l-21.6-57.6c-0.6-1.6,0.2-3.5,1.9-4.1l20.2-7.6c1.6-0.6,3.5,0.2,4.1,1.9
	c0,0,0,0,0,0l21.6,57.6c0.6,1.6-0.2,3.5-1.9,4.1h0l-20.2,7.6C115.1,264.3,114.7,264.4,114.3,264.4z M112.8,194.1
	c-0.2,0-0.5,0-0.7,0.1L92,201.8c-1,0.4-1.5,1.5-1.1,2.5l21.6,57.6c0.4,1,1.5,1.5,2.5,1.1c0,0,0,0,0,0l20.2-7.6
	c1-0.4,1.5-1.5,1.1-2.5l-21.6-57.6C114.3,194.6,113.6,194.1,112.8,194.1z"/>
<rect x="7.1" y="133.6" transform="matrix(0.9361 -0.3518 0.3518 0.9361 -47.3816 15.9257)" class="st2" width="26" height="9.5"/>
<rect x="18.1" y="162.7" transform="matrix(0.9361 -0.3518 0.3518 0.9361 -56.9198 21.6324)" class="st2" width="26" height="9.5"/>
<path class="st0" d="M26.7,188.9c-1.3,0-2.5-0.8-3-2.1L2.1,129.2c-0.6-1.6,0.2-3.5,1.9-4.1l20.2-7.6c1.6-0.6,3.5,0.2,4.1,1.9
	c0,0,0,0,0,0L49.9,177c0.6,1.6-0.2,3.5-1.9,4.1h0l-20.2,7.6C27.5,188.8,27.1,188.9,26.7,188.9z M25.3,118.6c-0.2,0-0.5,0-0.7,0.1
	l-20.2,7.6c-1,0.4-1.5,1.5-1.1,2.5L25,186.4c0.4,1,1.5,1.5,2.5,1.1c0,0,0,0,0,0l20.2-7.6c1-0.4,1.5-1.5,1.1-2.5l-21.6-57.6
	C26.8,119.1,26.1,118.6,25.3,118.6z"/>
<circle class="st3" cx="324.2" cy="163.8" r="20.7"/>
<path class="st4" d="M232.1,258.4c3.7,1.4,7.9-0.4,9.3-4.1c0.2-0.4,0.3-0.8,0.4-1.2l57-36l-10.4-11.7l-52.8,39.1
	c-4-0.5-7.6,2.3-8.1,6.3C227,254.1,228.9,257.2,232.1,258.4L232.1,258.4z"/>
<path class="st3" d="M286.9,226.7c-1,0-2-0.5-2.5-1.4l-6.6-10.3c-0.9-1.3-0.5-3.1,0.8-4.1l22.1-16c4.4-3.2,10.6-2.2,13.8,2.2
	c3.2,4.4,2.2,10.6-2.2,13.8c-0.2,0.1-0.3,0.2-0.5,0.3l-23.2,14.9C288,226.5,287.4,226.7,286.9,226.7z"/>
<polygon class="st4" points="296.7,405.9 288.5,405.9 284.6,374.3 296.7,374.3 "/>
<path class="st3" d="M282.7,403.6h15.8l0,0v10l0,0h-25.8l0,0l0,0C272.7,408,277.2,403.6,282.7,403.6z"/>
<polygon class="st4" points="335,399.8 327.1,402 314.8,372.6 326.5,369.3 "/>
<path class="st3" d="M320.9,401.3l15.2-4.3l0,0l2.7,9.6l0,0l-24.8,7l0,0l0,0C312.5,408.3,315.6,402.8,320.9,401.3z"/>
<path class="st2" d="M357.1,351.2l-31.9-37.6l19.3-23.5c1.1-1.3,3-1.5,4.2-0.4c0.2,0.1,0.3,0.3,0.4,0.4l29.2,35.9L357.1,351.2z"/>
<path class="st5" d="M326.6,313.9L326.6,313.9c0.5-0.8,1.1-1.6,1.7-2.3l18.4-18.7c0.7-0.7,1.7-1.2,2.7-1.2c2.1-0.1,5.6,0.1,6.5,2.4
	l-24.9,20.4L326.6,313.9z"/>
<path class="st2" d="M358.2,359.2c-1.4,0-2.8-0.5-4-1.3l-0.1-0.1L325,313.2l4.8-0.5l25.9-20.2c1.3-1,3.2-0.8,4.2,0.5
	c0,0.1,0.1,0.1,0.1,0.2l28.4,42.9c0.9,1.4,0.5,3.2-0.8,4.2l-27.4,18.5C359.6,359.1,358.9,359.2,358.2,359.2z"/>
<path class="st0" d="M347.9,328.7c-0.6,0-1.1-0.3-1.4-0.7l-3.4-5c-0.5-0.8-0.3-1.8,0.5-2.3l17.2-11.6c0.8-0.5,1.8-0.3,2.3,0.5l3.4,5
	c0.5,0.8,0.3,1.8-0.5,2.3l-17.2,11.6C348.6,328.6,348.3,328.7,347.9,328.7z"/>
<path class="st3" d="M283.3,401.1c-1.9,0-3.5-1.5-3.6-3.3c-1.5-16.6-8.8-100.2-9.6-117.1c-0.9-18.8,14.7-48.4,14.9-48.7l0.1-0.2
	l7.7,1v0.9l7.3,0.9l14.2,1.4l4.1,49.7l1.8,33.7l16.9,68.9c0.4,1.6-0.6,3.2-2.1,3.6l-14.7,4c-1.6,0.4-3.2-0.5-3.7-2.1l-13.9-48.7
	c-0.2-0.5-0.7-0.8-1.2-0.7c-0.4,0.1-0.7,0.5-0.7,1l1.5,47.4c0,1-0.4,1.9-1.1,2.6c-3.4,3.2-12.3,4.9-17.3,5.6
	C283.7,401.1,283.5,401.1,283.3,401.1z"/>
<path class="st2" d="M327.5,192.1c-2.3-2.4-17.7,0.9-21.1,4.5L283,234.8l38.7,7.2l8.5-48.6L327.5,192.1z"/>
<path class="st3" d="M317.4,289.2c-0.8,0-1.7-0.1-2.4-0.4c-2.2-0.8-5-1.6-8.2-2.4c-13.9-3.6-18.9-15.1-14.6-34.1l0.1-0.5
	c4-18.1,11.5-35.2,22.1-50.4l1.6-2.4c4-5.8,11.2-8.6,18.1-7.2c6.3,1.3,9.6,3.2,10,5.6c0.7,4.7-13.3,61.8-19.3,86.1
	C323.9,286.9,320.8,289.2,317.4,289.2L317.4,289.2z"/>
<path class="st3" d="M269.4,281.9c-0.4,0-0.7-0.1-1.1-0.2l-4.5-1.4c-1.9-0.6-2.9-2.6-2.3-4.4c0-0.1,0.1-0.2,0.1-0.3l24-56.3
	c4.6-10.7,12.6-19.6,22.8-25.3h0c0.3-0.2,0.7-0.2,1-0.1c0.3,0.1,0.5,0.3,0.7,0.6c2.8,6.2-12.5,35.6-24.9,59.2
	c-6.3,12.1-11.8,22.5-12.4,25.5C272.5,280.7,271,281.9,269.4,281.9z"/>
<path class="st4" d="M343.5,294.7c3.2-2.4,3.8-6.9,1.5-10.1c-0.3-0.3-0.5-0.7-0.8-0.9l-0.2-67.5l-15.4,2.6l5,65.5
	c-2.5,3.1-2.1,7.6,1,10.2C337.2,296.7,340.9,296.7,343.5,294.7z"/>
<path class="st3" d="M331,233c-1.6,0-2.9-1.2-3-2.8l-1.8-27.2c-0.4-5.5,3.8-10.2,9.2-10.5c5.5-0.4,10.2,3.8,10.5,9.2
	c0,0.2,0,0.4,0,0.6l0.2,27.6c0,1.7-1.3,3-3,3L331,233L331,233z"/>
<circle class="st4" cx="320" cy="169.1" r="16.4"/>
<path class="st3" d="M333.6,180.6c1.2-3.9,2.4-8.5-0.1-11.8c-1.7-2.4-4.9-3.3-7.8-3.4c-2.9-0.1-5.9,0.4-8.8,0.1
	c-2.9-0.2-6-1.4-7.5-3.9c-1.9-3.3-0.3-7.8,2.8-10.1c3.1-2.2,7.2-2.5,11-2c4.8,0.6,9.3,2.6,12.9,5.8c3.5,3.2,5.8,7.9,5.7,12.7
	s-2.8,9.6-7.1,11.7"/>
<path class="st3" d="M329.5,144.7c-3.9-1.2-5.8-6.4-4-10.1c1.8-3.7,6.3-5.7,10.3-5.2c4.1,0.5,7.7,3.1,10.2,6.4
	c2.5,3.3,4,7.2,5.2,11.1s2.3,7.9,4,11.7c5.5,11.7,16.8,19.6,29.7,20.7c2.8,0.2,5.6,0.1,8.1-1.1c2.5-1.2,4.6-3.5,4.9-6.2
	c1.4,9.8-4.3,20.2-13.3,24.3s-20.6,1.5-27-6.1c-6.2-7.4-7.2-17.8-7.1-27.5c0-2.7,0.1-5.4-0.6-7.9c-0.7-2.5-2.5-5-5-5.8
	c-2-0.7-4.2-0.2-6.3,0.3c-2.1,0.5-4.3,0.9-6.3,0.2c-2-0.7-3.7-3-2.8-5"/>
<path class="st1" d="M394.6,414.7H217.9c-0.4,0-0.7-0.3-0.7-0.7s0.3-0.7,0.7-0.7h176.7c0.4,0,0.7,0.3,0.7,0.7
	S394.9,414.7,394.6,414.7z"/>
</svg>
