<?xml version="1.0" encoding="utf-8"?>
<!-- Generator: Adobe Illustrator 24.1.2, SVG Export Plug-In . SVG Version: 6.00 Build 0)  -->
<svg version="1.1" id="Layer_1" xmlns="http://www.w3.org/2000/svg" xmlns:xlink="http://www.w3.org/1999/xlink" x="0px" y="0px"
	 viewBox="0 0 398.3 415.1" style="enable-background:new 0 0 398.3 415.1;" xml:space="preserve">
<style type="text/css">
	.st0{fill:none;stroke:#3F3D56;stroke-miterlimit:10;}
	.st1{fill:#F2F2F2;}
	.st2{opacity:0.3;fill:#0061F2;enable-background:new    ;}
	.st3{fill:#0061F2;}
	.st4{fill:#2F2E41;}
	.st5{fill:#E6AB8E;}
	.st6{fill:#FFBE9D;}
	.st7{opacity:0.1;enable-background:new    ;}
	.st8{fill:#3F3D56;}
</style>
<line class="st0" x1="0.6" y1="414.7" x2="101.4" y2="414.7"/>
<path class="st1" d="M124.4,78.5H390c4.1,0,7.4,3.3,7.4,7.4V261c0,4.1-3.3,7.4-7.4,7.4H124.4c-4.1,0-7.4-3.3-7.4-7.4V85.9
	C117,81.8,120.3,78.5,124.4,78.5z"/>
<path class="st0" d="M115.8,66.5h265.6c4.1,0,7.4,3.3,7.4,7.4V249c0,4.1-3.3,7.4-7.4,7.4H115.8c-4.1,0-7.4-3.3-7.4-7.4V73.9
	C108.5,69.8,111.8,66.5,115.8,66.5z"/>
<line class="st0" x1="108.5" y1="84.7" x2="388.8" y2="84.7"/>
<path class="st2" d="M278.7,127.4h71.1c1.5,0,2.7,1.2,2.7,2.7v6.4c0,1.5-1.2,2.7-2.7,2.7h-71.1c-1.5,0-2.7-1.2-2.7-2.7v-6.4
	C276,128.6,277.2,127.4,278.7,127.4z"/>
<path class="st2" d="M264.1,160.1h100.4c1.5,0,2.7,1.2,2.7,2.7v4.1c0,1.5-1.2,2.7-2.7,2.7H264.1c-1.5,0-2.7-1.2-2.7-2.7v-4.1
	C261.4,161.3,262.6,160.1,264.1,160.1z"/>
<path class="st2" d="M264.1,186h100.4c1.5,0,2.7,1.2,2.7,2.7v4.1c0,1.5-1.2,2.7-2.7,2.7H264.1c-1.5,0-2.7-1.2-2.7-2.7v-4.1
	C261.4,187.2,262.6,186,264.1,186z"/>
<path class="st2" d="M264.1,211.8h100.4c1.5,0,2.7,1.2,2.7,2.7v4.1c0,1.5-1.2,2.7-2.7,2.7H264.1c-1.5,0-2.7-1.2-2.7-2.7v-4.1
	C261.4,213.1,262.6,211.8,264.1,211.8z"/>
<path class="st0" d="M282.5,123.6h71.1c1.5,0,2.7,1.2,2.7,2.7v6.4c0,1.5-1.2,2.7-2.7,2.7h-71.1c-1.5,0-2.7-1.2-2.7-2.7v-6.4
	C279.8,124.8,281.1,123.6,282.5,123.6z"/>
<path class="st0" d="M267.9,156.3h100.4c1.5,0,2.7,1.2,2.7,2.7v4.1c0,1.5-1.2,2.7-2.7,2.7H267.9c-1.5,0-2.7-1.2-2.7-2.7V159
	C265.2,157.5,266.4,156.3,267.9,156.3z"/>
<path class="st0" d="M267.9,182.2h100.4c1.5,0,2.7,1.2,2.7,2.7v4.1c0,1.5-1.2,2.7-2.7,2.7H267.9c-1.5,0-2.7-1.2-2.7-2.7v-4.1
	C265.2,183.4,266.4,182.2,267.9,182.2z"/>
<path class="st0" d="M267.9,208h100.4c1.5,0,2.7,1.2,2.7,2.7v4.1c0,1.5-1.2,2.7-2.7,2.7H267.9c-1.5,0-2.7-1.2-2.7-2.7v-4.1
	C265.2,209.3,266.4,208,267.9,208z"/>
<circle class="st2" cx="129.8" cy="77.9" r="5.7"/>
<circle class="st2" cx="145.7" cy="77.9" r="5.7"/>
<circle class="st2" cx="161.7" cy="77.9" r="5.7"/>
<circle class="st0" cx="132" cy="75.7" r="5.7"/>
<circle class="st0" cx="148" cy="75.7" r="5.7"/>
<circle class="st0" cx="164" cy="75.7" r="5.7"/>
<path class="st3" d="M197,248.4c-1-4.4-1.2-10.4-0.9-14.6c0,0-4.8-21.2-8.6-23.2l0,0c-0.1,0.1-1.9,2.5-2.1,10
	c-0.2,7.6-2.9,12.6-2.9,12.6s0.9,9.5,0.4,15.2L197,248.4z"/>
<path class="st3" d="M232.2,113.3h-87.7c-5,0-9,4-9,9c0,0,0,0,0,0v117c0,5,4,9,9,9h0h30.8c-1-4.3-2.3-10.9-1-15.5l0,0l0,0
	c0.1-0.2,0.1-0.4,0.2-0.6c0.9-3,1.2-6.1,0.9-9.3c0.6-2.7,0.6-5.4,0-8.1c-1-4.4-1.6-8.8-1.6-8.8s-0.5-5.9-0.1-9.5c0-0.1,0-0.2,0-0.2
	c-0.2,0-0.3-0.1-0.3-0.1s1.3-6.1,1.8-10c0.1-0.9,0.3-2.1,0.4-3.3c-0.4-0.1-0.9-0.2-1.3-0.3c-4.3-1.5-5.6-15.1-5.6-15.1v-4.3
	c0,0-1.4-6.6,3.6-9.5c4.8-2.8,6.7-3.6,6.9-3.6c0,0,0.1,0,0.1-0.1c0.5-0.4,1-1,1.3-1.6c0-0.1,0-0.2,0-0.3c-0.1-1.5-1.2-3-2.2-4.2
	c-0.9-1-1.7-2.1-2.6-3.1c-0.3-0.3-0.5-0.7-0.7-1.1c-0.1-0.2-0.1-0.5-0.1-0.7c0-0.1,0-0.2,0-0.3c0-0.8,0-1.6,0.1-2.3
	c0-0.7,0.2-1.5,0.9-1.7c0.3-0.1,0.8,0.1,1-0.2c0.1-0.1,0.1-0.3,0-0.4c0,0,0,0,0,0c0,0,0,0,0,0c-0.1-0.5-0.2-1.1-0.2-1.7
	c0-0.3,0-0.5,0.1-0.7c0.4-1.1,1.7-1.6,2.9-1.8c1.2-0.2,2.5-0.4,3.2-1.3c0.2-0.3,0.4-0.6,0.6-0.9c0.3-0.3,0.8-0.5,1.2-0.6
	c1.5-0.4,3-0.2,4.4,0.4c0.6,0.3,1.1,0.6,1.8,0.6c0.6,0,1.2-0.5,1.8-0.6c1-0.2,2,0.6,2.5,1.5c0.3,0.6,0.5,1.2,0.5,1.9
	c0,0.7-0.2,1.3-0.7,1.8c-0.4,0.5-1.1,0.8-1.3,1.4c-0.1,0.3-0.1,0.5-0.1,0.8c0,0,0,0.1,0,0.1c0,0,0,0,0,0c2.7,3.6,2,8.6-1.6,11.3
	c-0.7,0.5-1.5,1-2.4,1.2c0,0.1,0,0.2,0,0.2c0,1,0.3,2,1.1,2.7l7.1,2.9c0,0,4.2-0.5,5.8,5.8c0.2,1.1,0.3,2.1,0.3,3.2
	c-0.1,1,0.1,2.6,1.2,4.8c1.7,3.5,1.3,11.5-2.2,12.3c-3.4,0.8-4.7,0.4-4.8,0.4l0,0.1c0.1,1.5,0.6,14.4,2.5,16c0.5,0.4,0.4,0.7,0,0.9
	l0,0c0,0,0,0.1,0,0.2c0.1,0.9,0.4,4.6,1.7,6.6c1.5,2.4,1.3,16.1,1.3,16.1l1,8.1c0,0-0.6,5,0,5.9c0.4,0.5,0.8,8.1,1.1,14.7h26.5
	c5,0,9-4,9-9v-117C241.2,117.4,237.2,113.3,232.2,113.3L232.2,113.3z"/>
<path class="st0" d="M135.4,103h87.7c5,0,9,4,9,9v117c0,5-4,9-9,9h-87.7c-5,0-9-4-9-9v-117C126.3,107.1,130.4,103,135.4,103z"/>
<path class="st4" d="M61.9,159.9c0,0-5.7-1.7-6.9,0.1c-1.2,1.8,1.7,15,1.7,15l12.5,0.8l-4.4-11L61.9,159.9z"/>
<path class="st5" d="M18.2,268.3c0,0,11.3,24.9,2.6,24.1c-8.7-0.8-12.1-24.1-12.1-24.1H18.2z"/>
<path class="st5" d="M92.4,265.7c0,0-5,26.9,3.3,24s5.9-26.4,5.9-26.4L92.4,265.7z"/>
<path class="st6" d="M59.4,153.7c0,0-0.1,12.5,4.7,13.2c4.8,0.7-2.7,7.3-2.7,7.3l-8.6,1.7l-12.4-0.9l-5.5-7c0,0,9.7-4.6,5.5-18.8
	L59.4,153.7z"/>
<path class="st7" d="M59.4,153.7c0,0-0.1,12.5,4.7,13.2c4.8,0.7-2.7,7.3-2.7,7.3l-8.6,1.7l-12.4-0.9l-5.5-7c0,0,9.7-4.6,5.5-18.8
	L59.4,153.7z"/>
<path class="st4" d="M81.6,259.6c0,0,6.1,13.2,1.3,54.5c0,0,1.4,14.6,0.3,17.3c-1.2,2.7-10.8,39.9-10.8,39.9s-12.4,2.7-14.1-5.5
	c0,0,1.7-11.7,1.6-13.6c-0.1-1.8,2.7-21.8,2.7-21.8L56.7,292l-4.4,34.8c0,0,0,10-1.4,12.3c-1.4,2.2,0,46.8,0,46.8s4,6.8-2.1,6.9
	s-11.6-0.1-12.1-4.4s-0.8-8.6-2.1-11.2s-3-32.5-2.6-42.9c0.4-10.4-8.6-64-5.7-69.7S81.6,259.6,81.6,259.6z"/>
<circle class="st6" cx="52.8" cy="142.7" r="15.7"/>
<path class="st1" d="M37.1,168.2c0,0,9.5,7,23.3,1.4c0,0,4.6-2.2,4.2-5.6s9.5,27.3,9.5,27.3l10,53.4l-0.5,21.8c0,0-4.4-2.2-18.3,2.7
	c-13.8,5-36.4-5.6-36.4-5.6l0.8-56l0.8-32.6l2.1-7.2C32.7,167.8,33.7,165.8,37.1,168.2z"/>
<path class="st4" d="M59.9,159.4c0,0,2.3-0.4,4.5,3.1c2.2,3.5,7.4,5.7,7.4,5.7s12.7,0.8,14.5,7.6c1.8,6.8,6.4,16,8.6,33.1
	s6.7,44.4,7.3,46.6c0.7,2.2-0.9,9,0.9,11.1c1.8,2.1-12.9,2.1-12.9,2.1S88.9,258,88,258s-0.7,7.2,0.3,12.4c0.9,5.2-6.7,0-6.7,0
	s-5.9-23.9-11.5-45.4c-5.6-21.5-8.9-33.4-7.8-38.2c1-4.8,3.9-18.7,1.8-20C62,165.6,59.9,159.4,59.9,159.4z"/>
<path class="st4" d="M41.1,159.4c0,0-3.4,1.9-12,8c-8.6,6.1-14.5,10.8-14.5,10.8s-3.4,2.6-5.5,18.1s-6.8,55.7-5,60.8
	c1.8,5.1,2.5,8.1,1.8,11.1s13.7,2.9,14,2.2c0.3-0.7-0.4-12.5,0.3-12.8c0.7-0.3,4.2,7,4.8,13.2c0.7,6.1,8.2,11,9.9,11
	c1.7,0,10.4-35.4,10.6-59.5s-2.9-44.5-5.1-47.4C38.2,172.1,41.1,159.4,41.1,159.4z"/>
<path class="st8" d="M64,372.6c0,0,1-2.9,4.7-2c3.7,0.9,6.1-2.3,6.1-2.3s2-0.3,0.7,2.2c-1.3,2.5-2.3,4.2-2.3,4.2s7.8,17.9,2.7,22.2
	c-5.1,4.3-11,1.7-11,1.7s-5.7-4-5.5-14.7c0,0-0.3-3.4-3.4-8.9c-3.1-5.5-5.5-13.8-1.7-15.4s4.8-1.6,4.8-1.6s-1.8,8.1,2.8,10.9
	L64,372.6z"/>
<path class="st8" d="M39.7,392.8c0,0-3.1-5.9,2.1-6.5s10.8-1,10.6,1.7s-0.9,6.9-0.9,6.9l0.9,3c0,0,0.3,7.4,1.2,8.3
	c0.9,0.9,5.9,8.7-4.7,8.7s-13.7-1.2-12.8-3.7c0.9-2.5,1.2-14.7,1.2-14.7L39.7,392.8z"/>
<path class="st4" d="M47.8,130.2c0,0,7.3,2,11.1,2.7c3.8,0.8,3.4-1.4,3.4-1.4s5,0.7,4.7,0.1c-0.3-0.5,2.1-3.3-0.7-6.4
	c-2.7-3.1-2-5.5-2-5.5H62l-0.7-0.9h-3.7c0,0-2.7-1-9.9,0s-17,1.3-17.7,5.6c-0.8,4.3-4.8,9.7-3.4,12.1s9.7,12.7,10.4,17
	c0.8,4.3,4.4,5.3,4.3,2.6s-3.8-12.1-0.7-12.5S49.3,135.3,47.8,130.2z"/>
</svg>
