<?xml version="1.0" encoding="utf-8"?>
<!-- Generator: Adobe Illustrator 24.1.2, SVG Export Plug-In . SVG Version: 6.00 Build 0)  -->
<svg version="1.1" id="Layer_1" xmlns="http://www.w3.org/2000/svg" xmlns:xlink="http://www.w3.org/1999/xlink" x="0px" y="0px"
	 viewBox="0 0 398.3 415.1" style="enable-background:new 0 0 398.3 415.1;" xml:space="preserve">
<style type="text/css">
	.st0{fill:#F2F2F2;}
	.st1{fill:#3F3D56;}
	.st2{fill:#0061F2;}
	.st3{fill:none;stroke:#3F3D56;stroke-width:2;stroke-miterlimit:10;}
	.st4{fill:url(#SVGID_1_);}
	.st5{fill:#2F2E41;}
	.st6{opacity:0.1;}
	.st7{fill:#FBBEBE;}
	.st8{opacity:0.1;enable-background:new    ;}
	.st9{fill:#D0CDE1;}
	.st10{fill:none;stroke:#0061F2;stroke-width:2;stroke-miterlimit:10;}
</style>
<g>
	<polygon class="st0" points="239.5,346.3 1.2,346.3 1.2,70.5 239.5,144.6 	"/>
	<rect x="23.4" y="248.8" class="st1" width="187.3" height="87.3"/>
	<circle class="st2" cx="170.1" cy="206.5" r="26"/>
	<line class="st3" x1="169.8" y1="253.6" x2="170.1" y2="206.3"/>
	<circle class="st1" cx="170.1" cy="206.3" r="6.7"/>
	<path class="st1" d="M169.9,235.4c0,0-0.9-20.5-20.4-18.2"/>
	<circle class="st2" cx="61" cy="154.2" r="26"/>
	<line class="st3" x1="59.5" y1="250.3" x2="61" y2="154.2"/>
	<circle class="st1" cx="61" cy="154.2" r="6.7"/>
	<path class="st1" d="M60.6,181.4c0,0-0.6-20.5-20.2-18.5"/>
	<path class="st3" d="M59.5,248.5c0,0,4.9-39.4-19.9-41.7"/>
	<circle class="st1" cx="39.7" cy="206.8" r="6.7"/>
	<circle class="st2" cx="117" cy="96.4" r="26"/>
	<line class="st3" x1="117" y1="254" x2="117" y2="96.5"/>
	<circle class="st1" cx="117" cy="96.4" r="6.7"/>
	<circle class="st1" cx="96.5" cy="210.4" r="6.7"/>
	<path class="st1" d="M117,130.5c0,0-1-20.5-20.5-18.1"/>
	<path class="st1" d="M117,188.7c0,0-1-20.5-20.5-18.1"/>
	<path class="st3" d="M117,252.2c0,0,4.3-39.9-20.5-41.8"/>
	<circle class="st1" cx="137.9" cy="147.7" r="6.7"/>
	<path class="st3" d="M117.4,187.4c0,0-4.3-37.8,20.5-39.7"/>
	<path class="st1" d="M172.7,132.6c-5.2,0-9.4-4.2-9.4-9.4s4.2-9.4,9.4-9.4s9.4,4.2,9.4,9.4C182.1,128.4,177.9,132.6,172.7,132.6z
		 M172.7,114.8c-4.7,0-8.5,3.8-8.5,8.5c0,4.7,3.8,8.5,8.5,8.5s8.5-3.8,8.5-8.5C181.2,118.6,177.4,114.8,172.7,114.8z"/>
	<path class="st1" d="M25.4,87.5c-5.2,0-9.4-4.2-9.4-9.4c0-5.2,4.2-9.4,9.4-9.4s9.4,4.2,9.4,9.4C34.8,83.3,30.6,87.5,25.4,87.5z
		 M25.4,69.6c-4.7,0-8.5,3.8-8.5,8.5s3.8,8.5,8.5,8.5s8.5-3.8,8.5-8.5C33.9,73.5,30.1,69.6,25.4,69.6z"/>
	<path class="st1" d="M239.5,226.3c-5.2,0-9.4-4.2-9.4-9.4s4.2-9.4,9.4-9.4c5.2,0,9.4,4.2,9.4,9.4
		C248.9,222.1,244.7,226.3,239.5,226.3z M239.5,208.4c-4.7,0-8.5,3.8-8.5,8.5c0,4.7,3.8,8.5,8.5,8.5c4.7,0,8.5-3.8,8.5-8.5
		C248,212.2,244.2,208.4,239.5,208.4z"/>
	<circle class="st1" cx="199.9" cy="147.5" r="5.5"/>
	<circle class="st1" cx="243.4" cy="248.4" r="5.5"/>
	<path class="st1" d="M239.5,346.3v-97.5h-39.6c0,45.6-37,82.6-82.6,82.6s-82.6-37-82.6-82.6H1.2v97.5H239.5z"/>
	<path class="st2" d="M117.4,331.4c45.6,0,82.6-37,82.6-82.6H34.8C34.8,294.4,71.8,331.4,117.4,331.4z"/>
	<path class="st1" d="M351.8,283.6c40.7-20.6,57-70.3,36.4-111l-147.4,74.5C261.4,287.8,311.1,304.1,351.8,283.6z"/>
	
		<linearGradient id="SVGID_1_" gradientUnits="userSpaceOnUse" x1="320.7546" y1="159.5459" x2="320.7546" y2="164.7215" gradientTransform="matrix(1 0 0 -1 33.1293 294)">
		<stop  offset="0" style="stop-color:#808080;stop-opacity:0.25"/>
		<stop  offset="0.5351" style="stop-color:#808080;stop-opacity:0.12"/>
		<stop  offset="1" style="stop-color:#808080;stop-opacity:0.1"/>
	</linearGradient>
	<path class="st4" d="M354.8,129.9c0.3-0.2,0.5-0.4,0.8-0.6c-0.5,1.6-1.4,3.1-2.5,4.3l0,0c-0.3,0.3-0.6,0.6-0.8,0.8
		c0-0.1,0-0.1,0-0.2c0-0.7,0-1.3,0-2C353.2,131.6,354.1,130.8,354.8,129.9z"/>
	<path class="st5" d="M358.8,106.1c2.1-3.6,0.9-8.2-2.6-10.3c-3.6-2.1-8.2-0.9-10.3,2.6c-0.9,1.6-1.3,3.4-0.9,5.2
		c-4.4,2.1-7.1,6.6-6.9,11.5c-3.6,5.6-2.1,13.1,3.5,16.7c5.6,3.6,13.1,2.1,16.7-3.5c1.3-2,2-4.3,2-6.6c0-0.2,0-0.4,0-0.6
		C363.3,116.4,362.7,110.2,358.8,106.1L358.8,106.1z"/>
	<g class="st6">
		<path d="M344.8,101.7C344.9,101.7,344.9,101.7,344.8,101.7c0.1-0.2,0.1-0.3,0-0.4c0,0,0,0.1,0,0.1
			C344.9,101.5,344.8,101.6,344.8,101.7z"/>
		<path d="M362.1,114c-0.2,1.8-0.9,3.6-1.9,5.1c0,0.2,0,0.4,0,0.6c0,6.7-5.4,12.1-12.1,12.1c-6.3,0-11.5-4.8-12-11.1
			c0,0.3,0,0.7,0,1c0,6.7,5.4,12.1,12.1,12.1s12.1-5.4,12.1-12.1l0,0c0-0.2,0-0.4,0-0.6c1.5-2.2,2.1-4.9,1.9-7.6
			C362.2,113.7,362.1,113.9,362.1,114z"/>
		<path d="M359.8,101.3c-0.1,1-0.5,2-1,2.9c0.2,0.2,0.4,0.4,0.6,0.7C359.8,103.7,359.9,102.5,359.8,101.3L359.8,101.3z"/>
	</g>
	<path class="st7" d="M310.1,235.7c0.1,0.7,0.2,1.4,0.5,2c0.3,0.6,0.9,1.1,1.6,1.2c0.6,0,1.2-0.2,1.8-0.5c1.1-0.6,2.2-1.2,2.8-2.3
		c0.5-1,0.5-2.3,0.4-3.5l-0.7-9.2c-1.7,0-3.5,0-5.2,0c-1.7,0.1-2,0.5-1.8,2.2C309.9,229,309.7,232.4,310.1,235.7z"/>
	<path class="st7" d="M361.1,241.9l4.1,6.7c0.2,0.4,0.5,0.7,0.9,0.8c0.3,0,0.6,0,0.9-0.2c1.4-0.6,2.4-1.7,3.5-2.9
		c0.7-0.8,1.4-1.6,1.7-2.5c0.3-1.1,0-2.2-0.8-3c-0.5-0.4-1-0.8-1.6-1.1c-3.3-2.2-4.7-6.4-8-8.7c-0.2-0.2-0.4-0.3-0.7-0.3
		c-0.2,0-0.5,0.1-0.7,0.2c-1.5,0.8-2.9,1.6-4.4,2.4c-1.9,1-1.3,1.2,0.1,2.3C358.3,237.4,359.7,239.7,361.1,241.9z"/>
	<path class="st5" d="M319.1,230.4c-0.6-0.2-1.3-0.4-1.9-0.1c-0.5,0.3-0.9,0.9-1,1.5c-0.1,0.6-0.1,1.3-0.3,1.9
		c-0.3,1-1.1,1.8-1.8,2.6c-0.3,0.4-0.7,0.6-1.1,0.8c-0.6,0.2-1.2-0.1-1.8,0c-0.7,0.2-1.3,0.8-1.5,1.5c-0.2,0.7-0.2,1.4-0.1,2.2
		l0.5,5.1c0.1,0.6,0.1,1.3,0,1.9c-0.2,1.1-0.8,2.1-1.2,3.2c-0.4,1.1-0.3,2.5,0.6,3.2c0.6,0.4,1.5,0.5,2.2,0.2
		c0.7-0.3,1.3-0.8,1.8-1.4c2.8-3,4-7.2,6.2-10.7c0.6-0.8,1-1.7,1.5-2.5c0.3-0.7,0.5-1.4,0.7-2.1c0.3-0.9,0.7-1.9,1.2-2.7
		c0.3-0.5,1.2-1.7,1-2.3C323.8,231.5,320,230.7,319.1,230.4z"/>
	<path class="st5" d="M369.4,244.5c-0.6,1.2-1.7,2.1-2.9,2.5c-0.4,0.1-0.7,0.3-1,0.5c-0.4,0.5-0.5,1.1-0.2,1.7
		c0.3,0.5,0.7,1,1.1,1.4c2.5,2.6,4.2,6,4.8,9.6c0.1,0.9,0.2,1.9,0.8,2.6c1.1,1.4,3.3,1.4,4.9,0.5c0.5-0.2,0.9-0.6,1.2-1
		c0.3-0.5,0.4-1,0.5-1.5c0.3-1.3,0.4-2.7,0.5-4c0-2.6-1-5-1.4-7.5c-0.6-3.6-0.3-7.4-2-10.6c-0.2-0.4-0.4-0.7-0.8-1
		c-0.4-0.2-0.9-0.3-1.3-0.3c-1.5-0.1-3-0.1-4.5,0c-0.4,0-0.9,0.1-1.1,0.4c-0.2,0.4,0,0.8,0.2,1.2C369,240.9,370.5,242.4,369.4,244.5
		z"/>
	<path class="st5" d="M333.8,180.7c-0.9,0.7-1.1,1.9-0.5,2.9c0.3,0.6,0.9,1.1,0.8,1.7c-0.1,0.7-0.9,0.9-1.6,1
		c-5.8,0.9-11.5,2.6-17.1,4.3l-5.9,1.8c-1.7,0.5-3.4,1-4.9,2c-1.4,0.9-2.4,2.2-3.1,3.7c-0.7,1.5-0.9,3.2-1.1,4.8
		c-0.9,6-2,12.1-4.7,17.6l14.3,4.7c1.4,0.5,2.8,0.9,4.3,1.1c1.4,0.1,2.8,0,4.2-0.2c-0.1-3.2-0.1-6.5-0.2-9.7c0-1-0.1-2-0.2-3
		c-0.2-1.5-0.7-3-0.8-4.6c0.7-0.5,1.6-0.4,2.5-0.4c2,0.1,3.9-0.6,5.6-1.5c1.7-0.9,3.4-2,5.1-2.9c2.9-1.5,6.2-2.5,8.4-5
		c-1.1,4.3-3.8,8-4.3,12.4c-0.5,4.4,1.3,8.8,3.1,12.9l5.6,13.1c0.6,1.4,1.5,3.1,3,3.4c1,0.2,1.9-0.1,2.8-0.6c5.2-2.4,9.3-7,14.9-8.5
		c-0.4-2.7-2.6-5-3.8-7.5c-1-2.1-1.4-4.5-2.1-6.7c-0.7-2.2-1.9-4.5-4-5.6c-1-0.5-2.3-0.9-2.4-2.1c0-0.4,0.1-0.7,0.2-1
		c0.7-1.9,1.9-3.5,3.4-4.9c0.2-0.1,0.3-0.3,0.4-0.6c0.1-0.2,0.1-0.4,0-0.7c-0.1-1.8,0.8-3.4,1.9-4.9c1.1-1.4,2.3-2.8,2.9-4.5
		c1-2.9,0-6.1-1-9c-0.4-1.2-0.8-2.4-1.7-3.3c-1.3-1.4-3.4-1.8-5.3-2C346.1,178.4,338.7,176.8,333.8,180.7z"/>
	<g class="st6">
		<path d="M333.1,181.5c0.4-0.1,0.8-0.4,0.9-0.8c0-0.1,0-0.2,0-0.2c-0.1,0.1-0.2,0.1-0.3,0.2C333.5,180.9,333.2,181.2,333.1,181.5z"
			/>
	</g>
	<path class="st7" d="M343.6,135.4c0.1,1.4-0.4,3-1.5,3.9c-0.4,0.3-0.8,0.5-1.1,0.8c-1.1,1.2-1.1,3.1,0.1,4.2
		c0.1,0.1,0.2,0.2,0.4,0.3c1.1,0.7,2.6,0.5,3.9,0.3c1.8-0.2,3.5-0.7,5.1-1.3c1.7-0.7,3.1-1.8,4-3.3c-1.4-0.8-2.2-2.5-2.3-4.1
		c-0.1-1.6,0.4-3.5-0.7-4.8c-1-1.2-2.9-1.2-4.4-0.8c-0.8,0.2-1.5,0.5-2.3,0.7c-0.4,0.1-1.7,0.1-1.9,0.4
		C342.5,132.1,343.6,134.5,343.6,135.4z"/>
	<path class="st8" d="M343.6,135.4c0.1,1.4-0.4,3-1.5,3.9c-0.4,0.3-0.8,0.5-1.1,0.8c-1.1,1.2-1.1,3.1,0.1,4.2
		c0.1,0.1,0.2,0.2,0.4,0.3c1.1,0.7,2.6,0.5,3.9,0.3c1.8-0.2,3.5-0.7,5.1-1.3c1.7-0.7,3.1-1.8,4-3.3c-1.4-0.8-2.2-2.5-2.3-4.1
		c-0.1-1.6,0.4-3.5-0.7-4.8c-1-1.2-2.9-1.2-4.4-0.8c-0.8,0.2-1.5,0.5-2.3,0.7c-0.4,0.1-1.7,0.1-1.9,0.4
		C342.5,132.1,343.6,134.5,343.6,135.4z"/>
	<circle class="st7" cx="348" cy="126.8" r="8.5"/>
	<path class="st7" d="M321.2,191.9c-0.2,0.7-0.4,1.3-0.8,1.9c-1,1.8-1.3,3.8-1,5.8c0.4,2,1.7,3.7,3.6,4.5c0.8,0.3,1.8,0.4,2.4-0.2
		c-1.1-1.5-1.2-3.5-1.1-5.3c0-0.3,0.1-0.7,0.2-1c0.2-0.3,0.6-0.4,0.9-0.2c0,0,0,0,0,0c0,1.2,0.2,2.3,0.7,3.4
		c0.2,0.4,0.5,0.9,0.9,0.9c0.6,0,0.8-0.9,0.8-1.5c-0.1-2.6-0.2-5.4-1.5-7.7c-0.5-0.8-1.1-1.6-1.3-2.6c0-0.3-0.1-0.6-0.3-0.9
		c-0.1-0.1-0.3-0.2-0.5-0.2c-0.7-0.2-2.5-0.8-3.1-0.2C320.6,189.3,321.4,191,321.2,191.9z"/>
	<path class="st9" d="M333.8,146.8c-1-0.1-1.7,0.8-2.3,1.6c-2,3.1-3.4,6.5-4.2,10c-0.4,1.8-0.7,3.7-1.5,5.4
		c-0.2,0.3-0.4,0.7-0.5,1.1c-0.1,0.6-0.1,1.2-0.1,1.8c-0.1,1.1-0.7,2-0.9,3c-0.1,0.6-0.1,1.3-0.2,1.9c-0.2,1.1-0.8,2.1-1.2,3.1
		c-0.7,1.8-0.7,3.8-1.2,5.7c-0.1,0.3-0.2,0.6-0.4,0.9c-0.3,0.4-0.9,0.5-1.3,0.7c-0.7,0.4-1.2,1.1-1.3,2c-0.1,0.8-0.1,1.6,0,2.4
		l0.4,5c0.4-0.2,0.7-0.6,1-0.9c0.6-0.5,1.5-0.4,2.3-0.3l1.1,0.2c1.2,0.2,2.4,0.5,3.2,1.4c0.6-0.9,0.3-2.3,1.2-2.9
		c0.3-0.2,0.7-0.3,1-0.4c0.6-0.4,1-1,1-1.8c0-0.7-0.1-1.4-0.3-2.1c1.5-0.6,2.4-2.1,3-3.6c0.6-1.8,1.1-3.7,1.4-5.5
		c1.3-7.5,2.5-15,2.7-22.6c0.1-1.3-0.1-2.5-0.4-3.8C335.7,148,335.1,146.9,333.8,146.8z"/>
	<path class="st9" d="M355.2,138.7c-1.4,1.5-3.2,2.5-5.2,3c-2,0.5-4,0.8-6,0.9c-0.6,0.1-1.3,0-1.8-0.2c-0.6-0.3-1-0.9-0.8-1.5
		c0.1-0.2,0.2-0.4,0.2-0.6c0-0.5-0.8-0.6-1.3-0.4c-3.3,1-6.4,3-7.9,6.1c-0.9,1.7-1.1,3.7-1.4,5.6c-0.7,5-1.4,10.2-0.5,15.2
		c0.5,2.7,1.5,5.3,1.5,8c0,1.5-0.2,3-0.2,4.5c0,0.5,0.1,1.1,0.4,1.5c0.2,0.3,0.6,0.4,0.8,0.8c0.3,0.5-0.1,1.3,0.3,1.8
		c0.4,0.6,1.4,0.2,2-0.3c3.1-2.1,6.8-3,10.5-2.6c4.4,0.5,8.9,2.8,13.2,1.7c-0.2-0.3-0.4-0.7-0.6-1c-2.2-7.1-2-15,1.2-21.6
		c1.1-2.3,2.6-4.4,3-6.9c0.2-1.2,0.2-2.3,0-3.5c-0.2-2.3-0.8-4.5-2-6.4C359.5,140.6,357.5,138.9,355.2,138.7z"/>
	<path class="st7" d="M334.7,194.1c-0.3,0.9-0.5,1.9-0.5,2.9c0,0.9,0,1.9,0.1,2.8c0.1,0.8,0.4,1.6,0.8,2.2c0.5,0.7,1.3,1,2.1,0.8
		c0.6-0.3,1.1-0.8,1.3-1.4c0.2-0.6,0.3-1.3,0.4-1.9c0.4-1.9,1.4-3.7,1.4-5.7c0-0.2,0-0.5-0.1-0.7c-0.4-0.8-2.2-1.7-3.1-1.6
		C336.1,191.6,335.1,193.1,334.7,194.1z"/>
	<path class="st8" d="M359.2,145.8c-0.2,1.7,1.5,3,2.1,4.5c0.3,0.7,0.4,1.5,0.4,2.3c0.5,5.4,0.1,10.8-0.3,16.2
		c-0.1,1.8-0.3,3.6-0.7,5.3c-0.9,3.7-3.2,6.9-5.3,10c-0.8,1.2-1.9,2.2-3.3,2.7l-7.5,3.7c-0.9,0.4-1.8,0.9-2.7,1.5
		c-1,0.8-1.7,1.8-2.2,2.9c-1.5-0.7-3-1.4-4.4-2.2c-0.3-0.2-0.7-0.4-0.8-0.8c-0.1-0.5,0.5-0.9,0.8-1.2c0.7-0.7,0.9-1.7,1.3-2.6
		c1.2-2.9,4.3-4.8,5.4-7.7c0.4-1.1,0.6-2.4,1.3-3.4c0.4-0.5,0.9-0.9,1.4-1.3c1.2-1,2.2-2.1,3.2-3.3c0.4-0.4,0.8-1,1-1.5
		c0.3-0.8,0.2-1.8,0.2-2.7c0.1-2.9,1.4-5.7,2.2-8.5c0.8-2.7,1.1-5.5,2.1-8.1C354.5,149.3,356.5,146.5,359.2,145.8z"/>
	<path class="st9" d="M360.2,145.8c-0.2,1.7,1.5,3,2.1,4.5c0.3,0.7,0.4,1.5,0.4,2.3c0.5,5.4,0.1,10.8-0.3,16.2
		c-0.1,1.8-0.3,3.6-0.7,5.3c-0.9,3.7-3.2,6.9-5.3,10c-0.8,1.2-1.9,2.2-3.3,2.7l-7.5,3.7c-0.9,0.4-1.8,0.9-2.7,1.5
		c-1,0.8-1.7,1.8-2.2,2.9c-1.5-0.7-3-1.4-4.4-2.2c-0.3-0.2-0.7-0.4-0.8-0.8c-0.1-0.5,0.5-0.9,0.8-1.2c0.7-0.7,0.9-1.7,1.3-2.6
		c1.2-2.9,4.3-4.8,5.4-7.7c0.4-1.1,0.6-2.4,1.3-3.4c0.4-0.5,0.9-0.9,1.4-1.3c1.2-1,2.2-2.1,3.2-3.3c0.4-0.4,0.8-1,1-1.5
		c0.3-0.8,0.2-1.8,0.2-2.7c0.1-2.9,1.4-5.7,2.2-8.5c0.8-2.7,1.1-5.5,2.1-8.1C355.5,149.3,357.5,146.5,360.2,145.8z"/>
	<path class="st5" d="M352.2,113.7c-2.6-0.3-5.3,0.2-7.5,1.6c0.3,0,0.7,0,1,0.1c6.6,0.8,11.3,6.8,10.5,13.4c-0.5,3.8-2.6,7.1-5.9,9
		c6.7,0.2,12.3-5,12.5-11.6C363.1,119.8,358.5,114.4,352.2,113.7z"/>
	<path class="st5" d="M356,120.4c0.6,1.3,0.6,2.9,0.1,4.2c-0.1-0.2-0.1-0.3-0.2-0.5c-1.5-3.3-6.1-4.7-10.3-3.1c-2.5,1-4.2,2.7-5,4.7
		c-1.1-3.2,1.1-6.9,5.1-8.4C349.9,115.7,354.5,117.1,356,120.4z"/>
	<g class="st6">
		<path d="M356,124.3c-0.4-4.8-3.6-8.8-8.1-10.4c-1.1,0.3-2.2,0.7-3.2,1.3c0.3,0,0.7,0,1,0.1C350.7,115.9,354.8,119.5,356,124.3z"/>
		<path d="M357.9,115.5c-0.4-4.8-3.6-8.8-8.1-10.4c-1.1,0.3-2.2,0.7-3.2,1.3c0.3,0,0.7,0,1,0.1C352.6,107.1,356.7,110.7,357.9,115.5
			z"/>
		<path d="M358,102.4c-0.2-2.9-2.1-5.3-4.9-6.3c-0.7,0.2-1.3,0.4-1.9,0.8c0.2,0,0.4,0,0.6,0C354.8,97.3,357.3,99.4,358,102.4z"/>
		<path d="M362.5,122.7c0.5,6-3.5,11.4-9.4,12.8c-0.8,0.9-1.8,1.6-2.8,2.3c6.7,0.2,12.3-5,12.5-11.6
			C362.9,125,362.8,123.8,362.5,122.7L362.5,122.7z"/>
	</g>
	<line class="st10" x1="324.9" y1="200.1" x2="323.4" y2="152.9"/>
	<circle class="st2" cx="323.4" cy="152.9" r="6.7"/>
	<path class="st2" d="M324.3,182c0,0-1.6-20.5-21.1-17.5"/>
</g>
</svg>
